<svg xmlns="http://www.w3.org/2000/svg" viewBox="0 0 128 128" width="128" height="128">
  <rect width="128" height="128" rx="24" fill="#1B1B2B"/>
  <g fill="none" stroke-linejoin="round" stroke-linecap="round">
    <polygon stroke="#FF5A1F" stroke-width="5" points="64.0,14.0 70.2,47.1 91.0,31.8 79.6,55.0 117.2,54.6 81.7,67.1 102.1,86.0 75.6,77.8 80.4,109.1 64.0,82.0 50.3,101.6 52.4,77.8 18.1,90.5 46.3,67.1 21.7,56.5 48.4,55.0 33.8,28.0 57.8,47.1"/>
    <polygon stroke="#FFC53D" stroke-width="4" points="72.9,39.6 70.4,56.3 83.1,53.0 73.8,62.3 91.6,68.9 72.7,69.0 78.8,81.6 67.4,73.4 64.0,90.0 60.6,73.4 50.5,80.1 55.3,69.0 36.4,68.9 54.2,62.3 44.9,53.0 57.6,56.3 55.1,39.6 64.0,54.0"/>
    <circle cx="64" cy="64" r="6" stroke="#FFF8ED" stroke-width="3"/>
    <circle cx="104" cy="26" r="3" stroke="#FF5A1F" stroke-width="2"/>
    <circle cx="22" cy="34" r="2.5" stroke="#FFC53D" stroke-width="2"/>
    <circle cx="106" cy="102" r="2.5" stroke="#FFC53D" stroke-width="2"/>
  </g>
</svg>
